<svg viewBox="0 0 150 38" fill="none" xmlns="http://www.w3.org/2000/svg"><path d="M39.668 10.117c.985.458 1.749 1.061 2.292 1.808.56.73.84 1.58.84 2.548 0 1.902-.627 3.303-1.884 4.202-1.24.883-2.793 1.325-4.661 1.325h-6.24V1.253h5.501c1.987 0 3.55.407 4.687 1.222 1.138.799 1.706 1.962 1.706 3.49 0 .934-.195 1.758-.585 2.47a4.492 4.492 0 01-1.656 1.682zm-5.96-1.197h2.241c.68 0 1.206-.204 1.58-.612.373-.424.56-.942.56-1.553 0-.629-.213-1.104-.637-1.427-.425-.34-1.01-.51-1.758-.51h-1.986V8.92zm2.368 7.641c.866 0 1.563-.17 2.09-.51.543-.356.814-.882.814-1.578 0-1.325-1.053-1.987-3.158-1.987h-2.114v4.075h2.368zM52.492 1.253V20h-3.694V1.253h3.694zm24.019 0v19.511h-.102L63.29 8.92 63.367 20h-3.744V.514h.153l13.092 12.023-.076-11.284h3.719zm17.13 4.534c-1.63-.9-3.048-1.35-4.253-1.35-.815 0-1.452.161-1.91.484-.442.322-.663.806-.663 1.452 0 .594.323 1.12.968 1.579.662.441 1.537.866 2.624 1.273.883.323 1.638.697 2.267 1.121.628.408 1.146.977 1.553 1.707.425.73.637 1.655.637 2.776a5.08 5.08 0 01-.764 2.7c-.492.815-1.223 1.47-2.19 1.962-.968.475-2.123.713-3.465.713-1.12 0-2.233-.162-3.337-.484a10.668 10.668 0 01-3.082-1.528l1.63-2.879a8.861 8.861 0 002.217 1.172c.832.306 1.579.458 2.241.458.781 0 1.46-.16 2.038-.484.577-.34.866-.883.866-1.63 0-.968-.909-1.808-2.726-2.522-1.07-.424-1.96-.832-2.674-1.222-.713-.39-1.333-.951-1.86-1.681-.509-.73-.764-1.647-.764-2.751 0-1.613.527-2.912 1.58-3.897 1.07-.985 2.487-1.52 4.253-1.605 1.393 0 2.556.161 3.49.484.934.306 1.842.747 2.725 1.324l-1.4 2.828zm10.826-4.534V20h-3.693V1.253h3.693zm7.131 0h5.604c2.394 0 4.364.467 5.909 1.4 1.546.918 2.666 2.115 3.363 3.592.713 1.46 1.069 3.031 1.069 4.712 0 1.8-.424 3.388-1.273 4.764a8.624 8.624 0 01-3.439 3.184c-1.426.73-2.997 1.095-4.712 1.095h-6.521V1.253zm5.884 15.181c1.919 0 3.439-.493 4.56-1.477 1.12-.985 1.681-2.403 1.681-4.254 0-1.495-.314-2.683-.943-3.566-.611-.883-1.333-1.495-2.165-1.834-.815-.34-1.588-.51-2.318-.51h-3.005v11.641h2.19zm28.846-15.181v3.566h-9.093v3.999h8.049v3.566h-8.049v4.05h9.45V20h-13.143V1.253h12.786zM31.961 27.725c.78 0 1.387.195 1.823.584.442.39.664.935.664 1.635 0 .403-.083.78-.248 1.13-.159.35-.42.633-.783.851-.356.218-.809.327-1.357.327H31v2.635h-.96v-7.162h1.921zm.1 3.596c.343 0 .62-.073.831-.218.218-.146.374-.32.466-.525.093-.212.139-.416.139-.614 0-.344-.112-.647-.337-.912-.225-.27-.575-.406-1.05-.406H31v2.675h1.06zm8.803 3.566l-1.684-2.645c-.053.007-.132.01-.238.01h-1.06v2.635h-.96v-7.162h1.911c.489 0 .925.086 1.308.258.383.171.683.425.901.762.218.33.327.73.327 1.199 0 .442-.099.849-.297 1.218a1.88 1.88 0 01-.892.842l1.803 2.883h-1.12zm-1.942-3.566c.515 0 .885-.136 1.11-.406.23-.271.346-.581.346-.931 0-.212-.05-.42-.148-.625a1.152 1.152 0 00-.456-.505c-.205-.138-.465-.208-.782-.208h-1.11v2.675h1.04zm10.185-3.596v.921h-3.695v2.18h3.299v.92h-3.299v2.21h3.834v.93H44.45v-7.161h4.656zm9.928-.228v7.39h-.95V30.25l-2.635 3.734h-.02l-2.586-3.605v4.507h-.93v-7.39h.01l3.526 4.993 3.576-4.993h.01zm4.01.228v7.162h-.96v-7.162h.96zm3.92 4.626c0 .317.075.604.227.862.152.25.357.452.614.604.265.145.555.218.872.218.33 0 .627-.073.892-.218.27-.145.482-.347.634-.604.152-.258.227-.545.227-.862v-4.626h.942v4.656c0 .508-.12.96-.357 1.357a2.48 2.48 0 01-.97.911c-.41.211-.866.317-1.368.317a2.92 2.92 0 01-1.357-.317 2.48 2.48 0 01-.97-.911 2.643 2.643 0 01-.347-1.357v-4.656h.96v4.626zm14.496-4.854v7.39h-.951V30.25l-2.635 3.734h-.02L75.27 30.38v4.507h-.931v-7.39h.01l3.526 4.993 3.576-4.993h.01zm8.134.228v7.162h-.961v-7.162h.96zm9.288 0v7.4h-.03l-5.26-5.34.02 5.102h-.97v-7.38h.05l5.25 5.399-.02-5.181h.96zm7.28 0v.921h-1.922v6.24h-.961v-6.24h-1.872v-.921h4.755zm7.182 0v.921h-3.695v2.18h3.298v.92h-3.298v2.21h3.833v.93h-4.794v-7.161h4.656zm6.749 7.162l-1.684-2.645c-.053.007-.132.01-.238.01h-1.06v2.635h-.961v-7.162h1.912c.489 0 .924.086 1.308.258.383.171.683.425.901.762.218.33.327.73.327 1.199 0 .442-.099.849-.297 1.218a1.88 1.88 0 01-.892.842l1.803 2.883h-1.119zm-1.942-3.566c.515 0 .885-.136 1.11-.406.231-.271.346-.581.346-.931 0-.212-.049-.42-.148-.625a1.158 1.158 0 00-.456-.505c-.205-.138-.466-.208-.783-.208h-1.109v2.675h1.04zm6.49-3.596v7.162h-.961v-7.162h.961zm2.602 3.586c0-.654.165-1.262.495-1.823a3.732 3.732 0 011.328-1.337 3.496 3.496 0 011.832-.505 3.48 3.48 0 011.823.505 3.71 3.71 0 011.337 1.337 3.48 3.48 0 01.505 1.823 3.55 3.55 0 01-.495 1.832 3.683 3.683 0 01-1.347 1.338 3.59 3.59 0 01-1.823.485 3.61 3.61 0 01-1.832-.485 3.658 3.658 0 01-1.338-1.318 3.649 3.649 0 01-.485-1.852zm.991.01c0 .488.118.94.356 1.357.238.416.561.746.971.99.416.245.868.367 1.357.367s.934-.119 1.337-.357c.41-.244.73-.574.961-.99a2.76 2.76 0 00.357-1.377 2.76 2.76 0 00-.357-1.377 2.663 2.663 0 00-.971-1 2.578 2.578 0 00-1.347-.367c-.489 0-.938.125-1.347.376a2.67 2.67 0 00-.971 1 2.824 2.824 0 00-.346 1.378zm12.881 3.566l-1.684-2.645c-.053.007-.132.01-.238.01h-1.06v2.635h-.96v-7.162h1.911c.489 0 .925.086 1.308.258.383.171.683.425.901.762.218.33.327.73.327 1.199 0 .442-.099.849-.297 1.218-.191.37-.489.65-.891.842l1.802 2.883h-1.119zm-1.941-3.566c.515 0 .884-.136 1.109-.406.231-.271.347-.581.347-.931 0-.212-.05-.42-.149-.625a1.146 1.146 0 00-.456-.505c-.204-.138-.465-.208-.782-.208h-1.11v2.675h1.041zm9.233-2.318a4.277 4.277 0 00-.822-.337 2.912 2.912 0 00-.822-.129c-.39 0-.7.09-.931.268-.225.171-.337.41-.337.713 0 .297.132.541.396.733.271.185.654.37 1.149.555.37.132.68.277.931.435.258.152.469.367.634.644.172.271.258.618.258 1.04 0 .384-.096.73-.287 1.04a1.99 1.99 0 01-.823.734c-.35.178-.762.267-1.238.267a3.98 3.98 0 01-1.278-.208 4.466 4.466 0 01-1.079-.545l.426-.763c.244.185.538.344.881.476.344.125.664.188.961.188.383 0 .717-.099 1.001-.297.29-.198.435-.492.435-.882 0-.33-.122-.59-.366-.782-.238-.198-.575-.383-1.011-.555a8.637 8.637 0 01-1.01-.446 2.164 2.164 0 01-.683-.594c-.192-.258-.288-.578-.288-.96 0-.562.195-1.014.585-1.358.396-.35.908-.535 1.535-.555.773 0 1.489.192 2.15.575l-.367.743z" fill="#111"/><path d="M9.198 14.443h2.83V35.67h-2.83V14.443z" fill="#A78F53"/><path d="M0 26.472v-2.83h21.226v2.83H0z" fill="#A78F53"/></svg>