<svg viewBox="0 0 150 38" fill="none" xmlns="http://www.w3.org/2000/svg">
<path d="M39.6679 10.117C40.6528 10.5755 41.417 11.1783 41.9604 11.9255C42.5207 12.6557 42.8009 13.5047 42.8009 14.4726C42.8009 16.3745 42.1726 17.7755 40.916 18.6755C39.6764 19.5585 38.1226 20 36.2547 20H30.0141V1.25283H35.516C37.5028 1.25283 39.0651 1.66037 40.2028 2.47547C41.3406 3.27358 41.9094 4.43679 41.9094 5.96509C41.9094 6.89905 41.7141 7.72264 41.3236 8.43585C40.933 9.13207 40.3811 9.69245 39.6679 10.117ZM33.7075 8.91981H35.949C36.6283 8.91981 37.1547 8.71604 37.5283 8.30849C37.9019 7.88396 38.0887 7.36604 38.0887 6.75471C38.0887 6.12641 37.8764 5.65094 37.4519 5.3283C37.0274 4.98868 36.4415 4.81887 35.6943 4.81887H33.7075V8.91981ZM36.0764 16.5613C36.9424 16.5613 37.6387 16.3915 38.1651 16.0519C38.7085 15.6953 38.9802 15.1689 38.9802 14.4726C38.9802 13.1481 37.9274 12.4858 35.8217 12.4858H33.7075V16.5613H36.0764ZM52.4919 1.25283V20H48.7985V1.25283H52.4919ZM76.5107 1.25283V20.7642H76.4089L63.2909 8.91981L63.3673 20H59.623V0.514148H59.7758L72.8683 12.5368L72.7919 1.25283H76.5107ZM93.6415 5.78679C92.0113 4.88679 90.5933 4.43679 89.3877 4.43679C88.5726 4.43679 87.9358 4.59811 87.4773 4.92075C87.0358 5.24339 86.815 5.72736 86.815 6.37264C86.815 6.96698 87.1377 7.49339 87.783 7.95189C88.4452 8.39339 89.3198 8.81792 90.4066 9.22547C91.2896 9.54811 92.0452 9.9217 92.6735 10.3462C93.3018 10.7538 93.8198 11.3226 94.2273 12.0528C94.6518 12.783 94.8641 13.7085 94.8641 14.8292C94.8641 15.7972 94.6094 16.6972 94.0999 17.5292C93.6075 18.3443 92.8773 18.9981 91.9094 19.4906C90.9415 19.966 89.7867 20.2038 88.4452 20.2038C87.3245 20.2038 86.2122 20.0425 85.1084 19.7198C84.0047 19.3802 82.9773 18.8708 82.0264 18.1915L83.6565 15.3132C84.3018 15.7887 85.0405 16.1792 85.8726 16.4849C86.7047 16.7906 87.4518 16.9434 88.1141 16.9434C88.8952 16.9434 89.5745 16.7821 90.1518 16.4594C90.7292 16.1198 91.0179 15.5764 91.0179 14.8292C91.0179 13.8613 90.1094 13.0208 88.2924 12.3075C87.2226 11.883 86.3311 11.4755 85.6179 11.0849C84.9047 10.6943 84.2849 10.134 83.7584 9.40377C83.249 8.67358 82.9943 7.7566 82.9943 6.65283C82.9943 5.03962 83.5207 3.74056 84.5735 2.75566C85.6433 1.77075 87.0613 1.23585 88.8273 1.15094C90.2198 1.15094 91.383 1.31226 92.3169 1.6349C93.2509 1.94056 94.1594 2.38207 95.0424 2.95943L93.6415 5.78679ZM104.467 1.25283V20H100.774V1.25283H104.467ZM111.598 1.25283H117.202C119.596 1.25283 121.566 1.71981 123.111 2.65377C124.657 3.57075 125.777 4.76792 126.474 6.24528C127.187 7.70566 127.543 9.27641 127.543 10.9575C127.543 12.7575 127.119 14.3453 126.27 15.7208C125.421 17.0962 124.275 18.1575 122.831 18.9047C121.405 19.6349 119.834 20 118.119 20H111.598V1.25283ZM117.482 16.434C119.401 16.434 120.921 15.9415 122.042 14.9566C123.162 13.9717 123.723 12.5538 123.723 10.7028C123.723 9.20849 123.409 8.01981 122.78 7.13679C122.169 6.25377 121.447 5.64245 120.615 5.30283C119.8 4.96321 119.027 4.79339 118.297 4.79339H115.292V16.434H117.482ZM146.328 1.25283V4.81887H137.235V8.81792H145.284V12.384H137.235V16.434H146.685V20H133.542V1.25283H146.328Z" fill="#111111"/>
<path d="M31.9613 27.725C32.7406 27.725 33.3481 27.9198 33.784 28.3094C34.2264 28.6991 34.4477 29.2439 34.4477 29.9439C34.4477 30.3467 34.3651 30.7231 34.2 31.0731C34.0415 31.4231 33.7807 31.7071 33.4175 31.925C33.0609 32.1429 32.6085 32.2519 32.0604 32.2519H31.0005V34.8868H30.0396V27.725H31.9613ZM32.0604 31.3208C32.4038 31.3208 32.6812 31.2481 32.8925 31.1028C33.1104 30.9575 33.2656 30.7825 33.358 30.5778C33.4505 30.3665 33.4967 30.1618 33.4967 29.9637C33.4967 29.6203 33.3845 29.3165 33.1599 29.0524C32.9354 28.7816 32.5854 28.6462 32.1099 28.6462H31.0005V31.3208H32.0604ZM40.8638 34.8868L39.1799 32.242C39.127 32.2486 39.0478 32.2519 38.9421 32.2519H37.8822V34.8868H36.9214V27.725H38.8332C39.3218 27.725 39.7577 27.8109 40.1407 27.9825C40.5237 28.1542 40.8242 28.4085 41.0421 28.7453C41.2601 29.0755 41.369 29.475 41.369 29.9439C41.369 30.3863 41.27 30.7925 41.0718 31.1623C40.8803 31.5321 40.5832 31.8127 40.1803 32.0042L41.9832 34.8868H40.8638ZM38.9223 31.3208C39.4374 31.3208 39.8072 31.1854 40.0318 30.9146C40.2629 30.6439 40.3784 30.3335 40.3784 29.9835C40.3784 29.7722 40.3289 29.5642 40.2299 29.3594C40.1374 29.1547 39.9855 28.9863 39.7742 28.8542C39.5695 28.7156 39.3086 28.6462 38.9917 28.6462H37.8822V31.3208H38.9223ZM49.1069 27.725V28.6462H45.4121V30.8255H48.7107V31.7467H45.4121V33.9557H49.2456V34.8868H44.4512V27.725H49.1069ZM59.0355 27.4972V34.8868H58.0846V30.2509L55.4497 33.9854H55.4299L52.8445 30.3797V34.8868H51.9134V27.4972H51.9233L55.4497 32.4896L59.0256 27.4972H59.0355ZM63.0449 27.725V34.8868H62.0841V27.725H63.0449ZM66.9645 32.3509C66.9645 32.6679 67.0404 32.9552 67.1923 33.2127C67.3442 33.4637 67.5489 33.6651 67.8064 33.817C68.0706 33.9623 68.3612 34.0349 68.6781 34.0349C69.0083 34.0349 69.3055 33.9623 69.5697 33.817C69.8404 33.6717 70.0517 33.4703 70.2036 33.2127C70.3555 32.9552 70.4314 32.6679 70.4314 32.3509V27.725H71.3725V32.3807C71.3725 32.8892 71.2536 33.3415 71.0159 33.7377C70.7781 34.1274 70.4546 34.4311 70.0451 34.6491C69.6357 34.8604 69.18 34.966 68.6781 34.966C68.1829 34.966 67.7305 34.8604 67.3211 34.6491C66.9116 34.4311 66.5881 34.1274 66.3503 33.7377C66.1192 33.3415 66.0036 32.8892 66.0036 32.3807V27.725H66.9645V32.3509ZM81.4606 27.4972V34.8868H80.5097V30.2509L77.8748 33.9854H77.855L75.2696 30.3797V34.8868H74.3385V27.4972H74.3484L77.8748 32.4896L81.4507 27.4972H81.4606ZM89.5948 27.725V34.8868H88.6339V27.725H89.5948ZM98.8832 27.725V35.1245H98.8535L93.5936 29.7854L93.6134 34.8868H92.6426V27.5071H92.6922L97.9422 32.9057L97.9224 27.725H98.8832ZM106.163 27.725V28.6462H104.241V34.8868H103.28V28.6462H101.408V27.725H106.163ZM113.345 27.725V28.6462H109.65V30.8255H112.948V31.7467H109.65V33.9557H113.483V34.8868H108.689V27.725H113.345ZM120.094 34.8868L118.41 32.242C118.357 32.2486 118.278 32.2519 118.172 32.2519H117.112V34.8868H116.151V27.725H118.063C118.552 27.725 118.987 27.8109 119.371 27.9825C119.754 28.1542 120.054 28.4085 120.272 28.7453C120.49 29.0755 120.599 29.475 120.599 29.9439C120.599 30.3863 120.5 30.7925 120.302 31.1623C120.11 31.5321 119.813 31.8127 119.41 32.0042L121.213 34.8868H120.094ZM118.152 31.3208C118.667 31.3208 119.037 31.1854 119.262 30.9146C119.493 30.6439 119.608 30.3335 119.608 29.9835C119.608 29.7722 119.559 29.5642 119.46 29.3594C119.367 29.1547 119.215 28.9863 119.004 28.8542C118.799 28.7156 118.538 28.6462 118.221 28.6462H117.112V31.3208H118.152ZM124.642 27.725V34.8868H123.681V27.725H124.642ZM127.244 31.3109C127.244 30.6571 127.409 30.0495 127.739 29.4882C128.069 28.9269 128.512 28.4811 129.067 28.1509C129.628 27.8142 130.239 27.6458 130.899 27.6458C131.553 27.6458 132.16 27.8142 132.722 28.1509C133.283 28.4811 133.729 28.9269 134.059 29.4882C134.396 30.0495 134.564 30.6571 134.564 31.3109C134.564 31.9712 134.399 32.5821 134.069 33.1434C133.739 33.7047 133.29 34.1505 132.722 34.4807C132.16 34.8042 131.553 34.966 130.899 34.966C130.239 34.966 129.628 34.8042 129.067 34.4807C128.505 34.1571 128.06 33.7179 127.729 33.1632C127.406 32.6019 127.244 31.9844 127.244 31.3109ZM128.235 31.3208C128.235 31.8094 128.353 32.2618 128.591 32.6778C128.829 33.0939 129.152 33.4241 129.562 33.6684C129.978 33.9127 130.43 34.0349 130.919 34.0349C131.408 34.0349 131.853 33.916 132.256 33.6783C132.666 33.434 132.986 33.1038 133.217 32.6877C133.455 32.2651 133.574 31.8061 133.574 31.3109C133.574 30.8156 133.455 30.3566 133.217 29.934C132.979 29.5113 132.656 29.1778 132.246 28.9335C131.837 28.6892 131.388 28.567 130.899 28.567C130.41 28.567 129.961 28.6925 129.552 28.9434C129.143 29.1877 128.819 29.5212 128.581 29.9439C128.35 30.3665 128.235 30.8255 128.235 31.3208ZM141.116 34.8868L139.432 32.242C139.379 32.2486 139.3 32.2519 139.194 32.2519H138.134V34.8868H137.174V27.725H139.085C139.574 27.725 140.01 27.8109 140.393 27.9825C140.776 28.1542 141.076 28.4085 141.294 28.7453C141.512 29.0755 141.621 29.475 141.621 29.9439C141.621 30.3863 141.522 30.7925 141.324 31.1623C141.133 31.5321 140.835 31.8127 140.433 32.0042L142.235 34.8868H141.116ZM139.175 31.3208C139.69 31.3208 140.059 31.1854 140.284 30.9146C140.515 30.6439 140.631 30.3335 140.631 29.9835C140.631 29.7722 140.581 29.5642 140.482 29.3594C140.39 29.1547 140.238 28.9863 140.026 28.8542C139.822 28.7156 139.561 28.6462 139.244 28.6462H138.134V31.3208H139.175ZM148.408 29.0028C148.151 28.8642 147.877 28.7519 147.586 28.666C147.295 28.5802 147.021 28.5373 146.764 28.5373C146.374 28.5373 146.064 28.6264 145.833 28.8047C145.608 28.9764 145.496 29.2142 145.496 29.5179C145.496 29.8151 145.628 30.0594 145.892 30.2509C146.163 30.4359 146.546 30.6208 147.041 30.8057C147.411 30.9377 147.721 31.083 147.972 31.2415C148.23 31.3934 148.441 31.608 148.606 31.8854C148.778 32.1561 148.864 32.5028 148.864 32.9255C148.864 33.3085 148.768 33.6552 148.577 33.9656C148.385 34.2759 148.111 34.5203 147.754 34.6986C147.404 34.8769 146.992 34.966 146.516 34.966C146.074 34.966 145.648 34.8967 145.238 34.758C144.829 34.6127 144.469 34.4311 144.159 34.2132L144.585 33.4505C144.829 33.6354 145.123 33.7939 145.466 33.9259C145.81 34.0514 146.13 34.1142 146.427 34.1142C146.81 34.1142 147.144 34.0151 147.428 33.817C147.718 33.6189 147.863 33.325 147.863 32.9354C147.863 32.6052 147.741 32.3443 147.497 32.1528C147.259 31.9547 146.922 31.7698 146.486 31.5981C146.084 31.4462 145.747 31.2976 145.476 31.1524C145.212 31.0071 144.984 30.809 144.793 30.558C144.601 30.3005 144.505 29.9802 144.505 29.5972C144.505 29.0359 144.7 28.5835 145.09 28.2401C145.486 27.8901 145.998 27.7052 146.625 27.6854C147.398 27.6854 148.114 27.8769 148.775 28.2599L148.408 29.0028Z" fill="#111111"/>
<path d="M9.19811 14.4434H12.0283V35.6698H9.19811V14.4434Z" fill="#A78F53"/>
<path d="M0 26.4717V23.6415H21.2264V26.4717H0Z" fill="#A78F53"/>
</svg>
