<svg width="16" height="16" viewBox="0 0 16 16" xmlns="http://www.w3.org/2000/svg">
<path d="M8.21742 0C3.83223 0 1.50012 2.81013 1.50012 5.87426C1.50012 7.29533 2.29416 9.06741 3.56521 9.62943C3.75822 9.71644 3.86323 9.67944 3.90623 9.50043C3.94423 9.36442 4.11124 8.70939 4.19224 8.40038C4.21724 8.30137 4.20424 8.21537 4.12424 8.12237C3.70222 7.63434 3.36721 6.7453 3.36721 5.91127C3.36721 3.77417 5.06628 1.69908 7.95741 1.69908C10.4575 1.69908 12.2066 3.32315 12.2066 5.64625C12.2066 8.27137 10.8175 10.0875 9.01246 10.0875C8.01341 10.0875 7.26938 9.30342 7.50539 8.33338C7.7904 7.17832 8.34943 5.93627 8.34943 5.10323C8.34943 4.3562 7.92741 3.73817 7.06537 3.73817C6.04833 3.73817 5.22329 4.74521 5.22329 6.09727C5.22329 6.95631 5.5273 7.53634 5.5273 7.53634C5.5273 7.53634 4.52126 11.6005 4.33425 12.3596C4.01823 13.6446 4.37725 15.7257 4.40825 15.9047C4.42725 16.0037 4.53826 16.0347 4.60026 15.9537C4.69927 15.8237 5.91532 14.0886 6.25634 12.8346C6.38034 12.3776 6.88936 10.5245 6.88936 10.5245C7.22438 11.1295 8.19142 11.6365 9.22147 11.6365C12.2856 11.6365 14.4997 8.9434 14.4997 5.60125C14.4887 2.39711 11.7466 0 8.21742 0Z"/>
</svg>
